<?xml version="1.0" encoding="utf-8"?>
<!-- Generator: Adobe Illustrator 16.0.0, SVG Export Plug-In . SVG Version: 6.00 Build 0)  -->
<!DOCTYPE svg PUBLIC "-//W3C//DTD SVG 1.1//EN" "http://www.w3.org/Graphics/SVG/1.1/DTD/svg11.dtd">
<svg version="1.1" id="Layer_1" xmlns="http://www.w3.org/2000/svg" xmlns:xlink="http://www.w3.org/1999/xlink" x="0px" y="0px"
	 width="16px" height="16.001px" viewBox="0 0 16 16.001" enable-background="new 0 0 16 16.001" xml:space="preserve">
<g>
	<path fill="#8B62FF" d="M8,10c-2.757,0-5-2.243-5-5s2.243-5,5-5s5,2.243,5,5S10.757,10,8,10 M8,2C6.346,2,5,3.346,5,5s1.346,3,3,3
		c1.654,0,3-1.346,3-3S9.654,2,8,2"/>
	<path fill="#8B62FF" d="M1.001,16c-0.049,0-0.099-0.004-0.148-0.011c-0.546-0.081-0.924-0.59-0.843-1.136
		C0.629,10.69,3.765,8,8.001,8c4.266,0,7.401,2.693,7.989,6.86c0.077,0.547-0.304,1.053-0.851,1.13
		c-0.543,0.081-1.053-0.305-1.13-0.851C13.563,11.97,11.261,10,8.001,10c-3.87,0-5.643,2.658-6.011,5.146
		C1.916,15.644,1.489,16,1.001,16"/>
</g>
</svg>
