<?xml version="1.0" encoding="utf-8"?>
<!-- Generator: Adobe Illustrator 16.0.0, SVG Export Plug-In . SVG Version: 6.00 Build 0)  -->
<!DOCTYPE svg PUBLIC "-//W3C//DTD SVG 1.1//EN" "http://www.w3.org/Graphics/SVG/1.1/DTD/svg11.dtd">
<svg version="1.1" id="Layer_1" xmlns="http://www.w3.org/2000/svg" xmlns:xlink="http://www.w3.org/1999/xlink" x="0px" y="0px"
	 width="18px" height="18px" viewBox="0 0 18 18" enable-background="new 0 0 18 18" xml:space="preserve">
<g>
	<path fill="#F99B2B" d="M17,12V8c0-4.411-3.589-8-8-8S1,3.589,1,8v4c-0.552,0-1,0.448-1,1s0.448,1,1,1h4c0,2.206,1.794,4,4,4
		s4-1.794,4-4h4c0.552,0,1-0.448,1-1S17.552,12,17,12 M3,12V8c0-3.309,2.691-6,6-6c3.309,0,6,2.691,6,6v4H3z M9,16
		c-1.104,0-2-0.896-2-2h4C11,15.104,10.102,16,9,16"/>
</g>
</svg>
