<?xml version="1.0" encoding="utf-8"?>
<!-- Generator: Adobe Illustrator 16.0.0, SVG Export Plug-In . SVG Version: 6.00 Build 0)  -->
<!DOCTYPE svg PUBLIC "-//W3C//DTD SVG 1.1//EN" "http://www.w3.org/Graphics/SVG/1.1/DTD/svg11.dtd">
<svg version="1.1" id="Layer_1" xmlns="http://www.w3.org/2000/svg" xmlns:xlink="http://www.w3.org/1999/xlink" x="0px" y="0px"
	 width="18px" height="18px" viewBox="0 0 18 18" enable-background="new 0 0 18 18" xml:space="preserve">
<g>
	<path fill="#3CA4FF" d="M17.707,16.293l-3.394-3.395C15.366,11.542,16,9.846,16,8c0-4.411-3.589-8-8-8S0,3.589,0,8s3.589,8,8,8
		c1.846,0,3.542-0.634,4.896-1.688l3.396,3.396C16.488,17.902,16.744,18,17,18s0.512-0.098,0.707-0.293
		C18.098,17.316,18.098,16.684,17.707,16.293 M2,8c0-3.309,2.691-6,6-6c3.309,0,6,2.691,6,6c0,3.309-2.691,6-6,6
		C4.691,14,2,11.309,2,8"/>
</g>
</svg>
