<?xml version="1.0" encoding="utf-8"?>
<!-- Generator: Adobe Illustrator 16.0.0, SVG Export Plug-In . SVG Version: 6.00 Build 0)  -->
<!DOCTYPE svg PUBLIC "-//W3C//DTD SVG 1.1//EN" "http://www.w3.org/Graphics/SVG/1.1/DTD/svg11.dtd">
<svg version="1.1" id="Layer_1" xmlns="http://www.w3.org/2000/svg" xmlns:xlink="http://www.w3.org/1999/xlink" x="0px" y="0px"
	 width="18px" height="18px" viewBox="0 0 18 18" enable-background="new 0 0 18 18" xml:space="preserve">
<g>
	<path fill="#505050" d="M10.501,17.999H7.5c-0.966,0-1.752-0.773-1.752-1.727v-0.427c-0.427-0.191-0.832-0.419-1.215-0.682
		l-0.417,0.234c-0.41,0.223-0.87,0.28-1.307,0.169c-0.451-0.116-0.83-0.398-1.066-0.795l-1.501-2.521
		c-0.237-0.39-0.304-0.875-0.182-1.325c0.13-0.456,0.421-0.825,0.825-1.052l0.392-0.219C1.255,9.437,1.246,9.217,1.246,9
		c0-0.217,0.01-0.436,0.031-0.655l-0.39-0.218C0.481,7.901,0.188,7.529,0.063,7.082c-0.125-0.455-0.058-0.94,0.181-1.338
		l1.499-2.515c0.238-0.398,0.616-0.68,1.065-0.795c0.435-0.115,0.911-0.054,1.305,0.167l0.421,0.235
		c0.382-0.263,0.788-0.49,1.214-0.681V1.728C5.748,0.774,6.534,0,7.5,0h3.001c0.966,0,1.752,0.775,1.752,1.728v0.428
		c0.425,0.19,0.831,0.417,1.214,0.68l0.418-0.234c0.398-0.224,0.864-0.282,1.309-0.168c0.448,0.115,0.826,0.397,1.063,0.792
		l1.502,2.523c0.236,0.393,0.304,0.878,0.181,1.327c-0.127,0.454-0.421,0.826-0.828,1.052l-0.388,0.217
		C16.744,8.563,16.755,8.783,16.755,9c0,0.218-0.011,0.437-0.031,0.656l0.392,0.219c0.404,0.227,0.695,0.596,0.822,1.04
		c0.125,0.463,0.058,0.948-0.182,1.345l-1.498,2.513c-0.236,0.397-0.615,0.68-1.065,0.795c-0.45,0.113-0.907,0.052-1.302-0.164
		l-0.423-0.238c-0.383,0.263-0.789,0.49-1.215,0.682v0.427C12.253,17.226,11.467,17.999,10.501,17.999 M7.748,15.999h2.505v-1.548
		l0.676-0.23c0.671-0.231,1.284-0.573,1.821-1.018l0.527-0.437l1.386,0.774l1.228-2.06l-1.374-0.769l0.139-0.711
		c0.066-0.334,0.1-0.67,0.1-1.002c0-0.331-0.033-0.667-0.1-1.001l-0.139-0.711l1.374-0.769l-1.228-2.061l-1.385,0.776l-0.527-0.436
		c-0.54-0.446-1.152-0.788-1.821-1.016L10.253,3.55V2H7.748V3.55L7.071,3.782C6.4,4.011,5.789,4.353,5.25,4.796L4.723,5.233
		L3.337,4.458L2.109,6.519l1.374,0.769L3.345,7.999C3.279,8.333,3.246,8.668,3.246,9c0,0.332,0.033,0.668,0.099,1.002l0.139,0.711
		l-1.374,0.769l1.228,2.06l1.385-0.775l0.528,0.438c0.536,0.444,1.148,0.786,1.821,1.018l0.676,0.23V15.999z M16.041,11.229
		c-0.001,0.001-0.001,0.003-0.002,0.003L16.041,11.229z M1.956,11.223l0.002,0.004C1.958,11.225,1.957,11.224,1.956,11.223
		 M16.042,6.773c0.001,0,0.001,0.001,0.002,0.002L16.042,6.773z M1.96,6.77L1.958,6.771C1.959,6.771,1.959,6.771,1.96,6.77"/>
	<path fill="#505050" d="M9,13c-2.206,0-4-1.794-4-4s1.794-4,4-4s4,1.794,4,4S11.206,13,9,13 M9,7C7.897,7,7,7.897,7,9
		c0,1.103,0.897,2,2,2c1.103,0,2-0.897,2-2C11,7.897,10.103,7,9,7"/>
</g>
</svg>
