<svg 
 xmlns="http://www.w3.org/2000/svg"
 xmlns:xlink="http://www.w3.org/1999/xlink"
 width="18px" height="18px">
<defs>
<filter id="Filter_0">
    <feFlood flood-color="rgb(121, 121, 121)" flood-opacity="1" result="floodOut" />
    <feComposite operator="atop" in="floodOut" in2="SourceGraphic" result="compOut" />
    <feBlend mode="normal" in="compOut" in2="SourceGraphic" />
</filter>

</defs>
<g filter="url(#Filter_0)">
<path fill-rule="evenodd"  fill="rgb(118, 118, 118)"
 d="M15.000,17.999 L7.000,17.999 L3.000,17.999 C1.345,17.999 -0.000,16.654 -0.000,15.000 L-0.000,9.000 C-0.000,7.345 1.345,6.000 3.000,6.000 L4.000,6.000 L4.000,3.000 C4.000,1.345 5.345,-0.000 7.000,-0.000 L15.000,-0.000 C16.654,-0.000 18.000,1.345 18.000,3.000 L18.000,15.000 C18.000,16.654 16.654,17.999 15.000,17.999 ZM3.000,8.000 C2.448,8.000 2.000,8.448 2.000,9.000 L2.000,15.000 C2.000,15.551 2.448,15.999 3.000,15.999 L7.000,15.999 C7.551,15.999 8.000,15.551 8.000,15.000 L8.000,9.000 C8.000,8.448 7.551,8.000 7.000,8.000 L3.000,8.000 ZM16.000,3.000 C16.000,2.448 15.551,1.999 15.000,1.999 L7.000,1.999 C6.448,1.999 6.000,2.448 6.000,3.000 L6.000,6.000 L7.000,6.000 C8.654,6.000 10.000,7.345 10.000,9.000 L10.000,15.000 C10.000,15.352 9.927,15.685 9.815,15.999 L15.000,15.999 C15.551,15.999 16.000,15.551 16.000,15.000 L16.000,3.000 ZM13.600,14.000 L12.400,14.000 C12.179,14.000 12.000,13.820 12.000,13.600 L12.000,12.400 C12.000,12.179 12.179,11.999 12.400,11.999 L13.600,11.999 C13.821,11.999 14.000,12.179 14.000,12.400 L14.000,13.600 C14.000,13.820 13.821,14.000 13.600,14.000 ZM13.600,9.999 L12.400,9.999 C12.179,9.999 12.000,9.820 12.000,9.600 L12.000,8.399 C12.000,8.178 12.179,8.000 12.400,8.000 L13.600,8.000 C13.821,8.000 14.000,8.178 14.000,8.399 L14.000,9.600 C14.000,9.820 13.821,9.999 13.600,9.999 ZM13.600,6.000 L12.400,6.000 C12.179,6.000 12.000,5.821 12.000,5.600 L12.000,4.400 C12.000,4.179 12.179,3.999 12.400,3.999 L13.600,3.999 C13.821,3.999 14.000,4.179 14.000,4.400 L14.000,5.600 C14.000,5.821 13.821,6.000 13.600,6.000 ZM9.600,6.000 L8.400,6.000 C8.179,6.000 8.000,5.821 8.000,5.600 L8.000,4.400 C8.000,4.179 8.179,3.999 8.400,3.999 L9.600,3.999 C9.820,3.999 10.000,4.179 10.000,4.400 L10.000,5.600 C10.000,5.821 9.820,6.000 9.600,6.000 ZM5.600,11.999 L4.400,11.999 C4.179,11.999 4.000,11.820 4.000,11.599 L4.000,10.400 C4.000,10.179 4.179,9.999 4.400,9.999 L5.600,9.999 C5.821,9.999 6.000,10.179 6.000,10.400 L6.000,11.599 C6.000,11.820 5.821,11.999 5.600,11.999 Z"/>
</g>
</svg>