<?xml version="1.0" encoding="utf-8"?>
<!-- Generator: Adobe Illustrator 16.0.0, SVG Export Plug-In . SVG Version: 6.00 Build 0)  -->
<!DOCTYPE svg PUBLIC "-//W3C//DTD SVG 1.1//EN" "http://www.w3.org/Graphics/SVG/1.1/DTD/svg11.dtd">
<svg version="1.1" id="Layer_1" xmlns="http://www.w3.org/2000/svg" xmlns:xlink="http://www.w3.org/1999/xlink" x="0px" y="0px"
	 width="18px" height="18px" viewBox="0 0 18 18" enable-background="new 0 0 18 18" xml:space="preserve">
<g>
	<path fill="#FF6CDE" d="M17,18H1c-0.553,0-1-0.447-1-1V1c0-0.553,0.447-1,1-1h6c0.553,0,1,0.447,1,1S7.553,2,7,2H2v14h14v-5
		c0-0.553,0.447-1,1-1s1,0.447,1,1v6C18,17.553,17.553,18,17,18"/>
	<path fill="#FF6CDE" d="M17,6c-0.553,0-1-0.447-1-1V2h-3c-0.553,0-1-0.447-1-1s0.447-1,1-1h4c0.553,0,1,0.447,1,1v4
		C18,5.553,17.553,6,17,6"/>
	<path fill="#FF6CDE" d="M9,10c-0.256,0-0.512-0.098-0.707-0.293c-0.391-0.391-0.391-1.023,0-1.414l8-8
		c0.391-0.391,1.023-0.391,1.414,0s0.391,1.023,0,1.414l-8,8C9.512,9.902,9.256,10,9,10"/>
</g>
</svg>
