<?xml version="1.0" encoding="utf-8"?>
<!-- Generator: Adobe Illustrator 16.0.0, SVG Export Plug-In . SVG Version: 6.00 Build 0)  -->
<!DOCTYPE svg PUBLIC "-//W3C//DTD SVG 1.1//EN" "http://www.w3.org/Graphics/SVG/1.1/DTD/svg11.dtd">
<svg version="1.1" id="Layer_1" xmlns="http://www.w3.org/2000/svg" xmlns:xlink="http://www.w3.org/1999/xlink" x="0px" y="0px"
	 width="18px" height="18px" viewBox="0 0 18 18" enable-background="new 0 0 18 18" xml:space="preserve">
<g>
	<path fill="#25C500" d="M5,8C4.447,8,4,7.554,4,7V3c0-1.654,1.346-3,3-3h4c0.553,0,1,0.447,1,1c0,0.553-0.447,1-1,1H7
		C6.448,2,6,2.449,6,3v4C6,7.554,5.553,8,5,8"/>
	<path fill="#25C500" d="M15,18H7c-1.654,0-3-1.346-3-3v-2c0-0.553,0.447-1,1-1s1,0.447,1,1v2c0,0.552,0.448,1,1,1h8
		c0.552,0,1-0.448,1-1V7c0-0.553,0.447-1,1-1s1,0.447,1,1V15C18,16.654,16.654,18,15,18"/>
	<path fill="#25C500" d="M17,8h-6c-0.553,0-1-0.447-1-1V1c0-0.404,0.243-0.77,0.617-0.924c0.375-0.156,0.804-0.069,1.09,0.217l6,6
		c0.286,0.286,0.372,0.716,0.217,1.09C17.77,7.757,17.404,8,17,8 M12,6h2.586L12,3.415V6z"/>
	<path fill="#25C500" d="M6,14c-2.206,0-4-1.794-4-4s1.794-4,4-4s4,1.794,4,4S8.206,14,6,14 M6,8c-1.103,0-2,0.897-2,2
		c0,1.102,0.897,2,2,2c1.102,0,2-0.898,2-2C8,8.897,7.102,8,6,8"/>
	<path fill="#25C500" d="M1,16c-0.256,0-0.512-0.098-0.707-0.293c-0.391-0.391-0.391-1.023,0-1.414l2-2
		c0.391-0.391,1.023-0.391,1.414,0s0.391,1.023,0,1.414l-2,2C1.512,15.903,1.256,16,1,16"/>
</g>
</svg>
