<?xml version="1.0" encoding="utf-8"?>
<!-- Generator: Adobe Illustrator 16.0.0, SVG Export Plug-In . SVG Version: 6.00 Build 0)  -->
<!DOCTYPE svg PUBLIC "-//W3C//DTD SVG 1.1//EN" "http://www.w3.org/Graphics/SVG/1.1/DTD/svg11.dtd">
<svg version="1.1" id="Layer_1" xmlns="http://www.w3.org/2000/svg" xmlns:xlink="http://www.w3.org/1999/xlink" x="0px" y="0px"
	 width="288.354px" height="53.758px" viewBox="0 0 288.354 53.758" enable-background="new 0 0 288.354 53.758"
	 xml:space="preserve">
<polygon fill="#242390" points="26.759,0 12.12,16.739 14.16,0 4.92,0 0,40.019 9.24,40.019 11.46,21.9 23.519,40.019 
	35.159,40.019 20.339,19.38 37.799,0 "/>
<polygon fill="#242390" points="54.819,13.26 45.82,27.898 39.88,13.26 30.04,13.26 40.42,36.599 29.38,53.758 39.1,53.758 
	64.959,13.26 "/>
<g>
	<path fill="#242390" d="M93.479,13.26l-1.68,14.459c-0.36,3.181-0.9,6.9-3.9,9.78c-3.18,3.06-7.44,3.42-10.499,3.42
		c-2.7,0-7.44-0.18-10.44-3.061c-1.8-1.68-2.88-4.38-2.88-7.199c0-1.08,0.18-2.94,0.3-3.78L66,13.26h8.64l-1.56,13.319
		c-0.18,1.68-0.3,2.281-0.3,2.94c0,1.44,0.54,2.4,1.14,2.94c0.78,0.72,2.28,1.14,3.539,1.14c1.381,0,3-0.479,3.96-1.5
		c0.361-0.359,1.38-1.62,1.741-4.8l1.679-14.039H93.479z"/>
	<path fill="#242390" d="M104.459,13.26l-0.42,2.939c1.02-1.08,2.16-1.919,3.3-2.519c1.92-1.021,3.42-1.14,5.28-1.14
		c2.22,0,4.92,0.3,6.96,2.28c2.099,2.04,2.279,4.74,2.279,6.36c0,0.899-0.06,2.22-0.42,5.1l-1.62,13.739h-8.639l1.44-11.579
		c0.36-2.761,0.36-3.901,0.36-4.321c0-1.019-0.18-2.28-1.08-3.24c-0.96-0.96-2.28-1.14-3.18-1.14c-1.5,0-2.82,0.361-3.9,1.441
		c-1.56,1.619-1.92,4.199-2.1,5.64l-1.56,13.199H92.52l3.299-26.759H104.459z"/>
	<path fill="#242390" d="M146.377,13.26h8.641l-3.36,26.879c-0.42,3.12-1.2,6.899-4.019,9.72c-3.541,3.54-8.581,3.899-11.701,3.899
		c-3.6,0-7.44-0.6-10.38-3.359c-1.859-1.8-3.299-4.44-3.719-7.32h9.239c0.24,0.96,0.84,1.98,1.62,2.641
		c0.96,0.779,2.34,1.079,3.78,1.079c2.64,0,4.079-1.199,4.74-1.979c1.08-1.26,1.62-3.36,1.799-4.979l0.361-2.88
		c-2.4,3.42-5.82,3.779-8.22,3.779c-2.7,0-5.52-0.3-8.28-3.18c-1.86-1.92-3.6-4.98-3.6-9.72c0-4.679,1.62-8.76,4.38-11.579
		c2.58-2.639,5.7-3.9,9.6-3.9c1.86,0,5.64,0.24,8.819,4.139L146.377,13.26z M134.138,21.6c-1.2,1.199-1.98,3.42-1.98,5.399
		c0,1.68,0.6,3.541,1.8,4.68c1.08,1.021,2.82,1.62,4.32,1.62c1.62,0,3.54-0.54,4.739-1.74c1.321-1.26,2.221-3.72,2.221-5.699
		c0-1.681-0.721-3.42-1.741-4.38c-0.839-0.84-2.219-1.62-4.619-1.62C136.478,19.859,134.978,20.76,134.138,21.6"/>
	<path fill="#242390" d="M173.058,0c4.14,0,10.799,0.601,15.299,5.1c2.64,2.64,4.8,7.02,4.8,13.319c0,9.18-4.2,14.16-6.24,16.08
		c-4.62,4.38-10.92,5.52-18.179,5.52h-12.3L161.357,0H173.058z M166.637,32.219h2.82c2.7,0,6.96-0.18,10.2-3.06
		c2.279-2.041,4.019-5.759,4.019-10.5c0-3.54-1.14-6.359-2.88-8.039c-1.92-1.86-5.22-2.82-8.339-2.82h-2.82L166.637,32.219z"/>
	<path fill="#DD0000" d="M221.916,16.499c2.04,2.04,3.601,5.16,3.601,9.061c0,3.899-1.5,8.1-4.32,10.979
		c-3.78,3.84-8.399,4.38-12.3,4.38c-3.419,0-7.739-0.48-11.159-4.021c-2.1-2.159-3.66-5.46-3.66-9.419c0-3.901,1.44-7.8,4.32-10.56
		c2.939-2.88,7.379-4.56,12.299-4.56C215.017,12.36,219.276,13.86,221.916,16.499 M214.416,31.679c1.5-1.439,2.221-3.66,2.221-5.699
		c0-2.04-0.78-3.66-1.8-4.62c-1.141-1.08-3.061-1.68-4.681-1.68s-3.42,0.6-4.8,1.859c-1.62,1.441-2.399,3.661-2.399,5.701
		c0,1.859,0.72,3.479,1.739,4.559c0.841,0.901,2.341,1.8,4.681,1.8C211.536,33.599,213.276,32.759,214.416,31.679"/>
	<path fill="#DD0000" d="M237.797,13.26l-0.421,2.939c1.021-1.08,2.16-1.919,3.301-2.519c1.92-1.021,3.42-1.14,5.279-1.14
		c2.22,0,4.92,0.3,6.96,2.28c2.1,2.04,2.279,4.74,2.279,6.36c0,0.899-0.06,2.22-0.42,5.1l-1.62,13.739h-8.639l1.439-11.579
		c0.36-2.761,0.36-3.901,0.36-4.321c0-1.019-0.18-2.28-1.08-3.24c-0.96-0.96-2.28-1.14-3.18-1.14c-1.5,0-2.82,0.361-3.9,1.441
		c-1.56,1.619-1.92,4.199-2.1,5.64l-1.561,13.199h-8.639l3.299-26.759H237.797z"/>
	<path fill="#DD0000" d="M279.715,13.26h8.64l-3.36,26.879c-0.42,3.12-1.199,6.899-4.019,9.72c-3.541,3.54-8.58,3.899-11.7,3.899
		c-3.6,0-7.439-0.6-10.38-3.359c-1.859-1.8-3.299-4.44-3.72-7.32h9.24c0.239,0.96,0.84,1.98,1.619,2.641
		c0.96,0.779,2.341,1.079,3.78,1.079c2.639,0,4.08-1.199,4.74-1.979c1.08-1.26,1.62-3.36,1.799-4.979l0.361-2.88
		c-2.4,3.42-5.82,3.779-8.221,3.779c-2.699,0-5.52-0.3-8.279-3.18c-1.86-1.92-3.6-4.98-3.6-9.72c0-4.679,1.619-8.76,4.379-11.579
		c2.58-2.639,5.7-3.9,9.601-3.9c1.858,0,5.64,0.24,8.819,4.139L279.715,13.26z M267.476,21.6c-1.2,1.199-1.98,3.42-1.98,5.399
		c0,1.68,0.601,3.541,1.801,4.68c1.08,1.021,2.819,1.62,4.319,1.62c1.62,0,3.54-0.54,4.739-1.74c1.321-1.26,2.221-3.72,2.221-5.699
		c0-1.681-0.721-3.42-1.74-4.38c-0.84-0.84-2.22-1.62-4.619-1.62C269.815,19.859,268.315,20.76,267.476,21.6"/>
</g>
</svg>
