<?xml version="1.0" encoding="utf-8"?>
<!-- Generator: Adobe Illustrator 16.0.0, SVG Export Plug-In . SVG Version: 6.00 Build 0)  -->
<!DOCTYPE svg PUBLIC "-//W3C//DTD SVG 1.1//EN" "http://www.w3.org/Graphics/SVG/1.1/DTD/svg11.dtd">
<svg version="1.1" id="Layer_1" xmlns="http://www.w3.org/2000/svg" xmlns:xlink="http://www.w3.org/1999/xlink" x="0px" y="0px"
	 width="18px" height="18px" viewBox="0 0 18 18" enable-background="new 0 0 18 18" xml:space="preserve">
<g>
	<path fill="#505050" d="M17,16h-4c-0.553,0-1-0.447-1-1V3c0-0.553,0.447-1,1-1h4c0.553,0,1,0.447,1,1v12C18,15.553,17.553,16,17,16
		 M14,14h2V4h-2V14z"/>
	<path fill="#505050" d="M13,18c-0.055,0-0.109-0.005-0.164-0.014l-12-1.999C0.354,15.907,0,15.49,0,15.002v-11
		c0-0.459,0.313-0.859,0.758-0.97l12-3.001c0.298-0.077,0.614-0.008,0.857,0.182C13.858,0.402,14,0.693,14,1v16
		c0,0.294-0.129,0.573-0.354,0.763C13.465,17.917,13.235,18,13,18 M2,14.154l10,1.666V2.283l-10,2.5V14.154z"/>
	<path fill="#505050" d="M9,12c-0.256,0-0.512-0.098-0.707-0.293l-4-4c-0.391-0.391-0.391-1.023,0-1.414s1.023-0.391,1.414,0l4,4
		c0.391,0.391,0.391,1.023,0,1.414C9.512,11.902,9.256,12,9,12"/>
	<path fill="#505050" d="M5,12c-0.256,0-0.512-0.098-0.707-0.293c-0.391-0.391-0.391-1.023,0-1.414l4-4
		c0.391-0.391,1.023-0.391,1.414,0s0.391,1.023,0,1.414l-4,4C5.512,11.902,5.256,12,5,12"/>
</g>
</svg>
