<?xml version="1.0" encoding="utf-8"?>
<!-- Generator: Adobe Illustrator 16.0.0, SVG Export Plug-In . SVG Version: 6.00 Build 0)  -->
<!DOCTYPE svg PUBLIC "-//W3C//DTD SVG 1.1//EN" "http://www.w3.org/Graphics/SVG/1.1/DTD/svg11.dtd">
<svg version="1.1" id="Layer_1" xmlns="http://www.w3.org/2000/svg" xmlns:xlink="http://www.w3.org/1999/xlink" x="0px" y="0px"
	 width="18px" height="18px" viewBox="0 0 18 18" enable-background="new 0 0 18 18" xml:space="preserve">
<g>
	<path fill="#505050" d="M17,2H1C0.447,2,0,1.553,0,1s0.447-1,1-1h16c0.553,0,1,0.447,1,1S17.553,2,17,2"/>
	<path fill="#505050" d="M1,6C0.447,6,0,5.553,0,5V1c0-0.553,0.447-1,1-1s1,0.447,1,1v4C2,5.553,1.553,6,1,6"/>
	<path fill="#505050" d="M17,6c-0.553,0-1-0.447-1-1V1c0-0.553,0.447-1,1-1s1,0.447,1,1v4C18,5.553,17.553,6,17,6"/>
	<path fill="#505050" d="M6.999,10c-0.19,0-0.383-0.055-0.554-0.168l-5.999-4c-0.46-0.307-0.584-0.927-0.277-1.387
		c0.304-0.459,0.924-0.584,1.386-0.277l6,4c0.46,0.307,0.584,0.927,0.277,1.387C7.64,9.844,7.322,10,6.999,10"/>
	<path fill="#505050" d="M7,16c-0.553,0-1-0.447-1-1V9c0-0.553,0.447-1,1-1s1,0.447,1,1v6C8,15.553,7.553,16,7,16"/>
	<path fill="#505050" d="M10.999,18c-0.15,0-0.304-0.034-0.446-0.105l-4-2.001c-0.494-0.246-0.694-0.848-0.447-1.342
		c0.248-0.494,0.848-0.691,1.342-0.446l3.999,2c0.494,0.247,0.695,0.848,0.448,1.342C11.719,17.798,11.365,18,10.999,18"/>
	<path fill="#505050" d="M11,18c-0.553,0-1-0.447-1-1V9c0-0.553,0.447-1,1-1s1,0.447,1,1v8C12,17.553,11.553,18,11,18"/>
	<path fill="#505050" d="M11.001,10c-0.322,0-0.641-0.156-0.833-0.445c-0.307-0.46-0.183-1.08,0.277-1.387l6-4
		c0.461-0.307,1.081-0.182,1.386,0.277c0.308,0.46,0.184,1.08-0.276,1.387l-5.999,4C11.385,9.945,11.191,10,11.001,10"/>
</g>
</svg>
