<?xml version="1.0" encoding="utf-8"?>
<!-- Generator: Adobe Illustrator 16.0.0, SVG Export Plug-In . SVG Version: 6.00 Build 0)  -->
<!DOCTYPE svg PUBLIC "-//W3C//DTD SVG 1.1//EN" "http://www.w3.org/Graphics/SVG/1.1/DTD/svg11.dtd">
<svg version="1.1" id="Layer_1" xmlns="http://www.w3.org/2000/svg" xmlns:xlink="http://www.w3.org/1999/xlink" x="0px" y="0px"
	 width="18px" height="18px" viewBox="0 0 18 18" enable-background="new 0 0 18 18" xml:space="preserve">
<g>
	<path fill="#505050" d="M13,4c-0.553,0-1-0.447-1-1V1c0-0.553,0.447-1,1-1s1,0.447,1,1v2C14,3.553,13.553,4,13,4"/>
	<path fill="#505050" d="M15,18H3c-1.654,0-3-1.346-3-3V5c0-1.654,1.346-3,3-3h12c1.654,0,3,1.346,3,3v10C18,16.654,16.654,18,15,18
		 M3,4C2.448,4,2,4.448,2,5v10c0,0.552,0.448,1,1,1h12c0.552,0,1-0.448,1-1V5c0-0.552-0.448-1-1-1H3z"/>
	<path fill="#505050" d="M5,4C4.447,4,4,3.553,4,3V1c0-0.553,0.447-1,1-1s1,0.447,1,1v2C6,3.553,5.553,4,5,4"/>
	<path fill="#505050" d="M11,10h2c0.552,0,1,0.448,1,1v2c0,0.552-0.448,1-1,1h-2c-0.552,0-1-0.448-1-1v-2C10,10.448,10.448,10,11,10
		"/>
	<path fill="#505050" d="M17,8H1C0.447,8,0,7.553,0,7s0.447-1,1-1h16c0.553,0,1,0.447,1,1S17.553,8,17,8"/>
</g>
</svg>
